<svg id="visual" viewBox="0 0 1920 1080" width="1920" height="1080" xmlns="http://www.w3.org/2000/svg" xmlns:xlink="http://www.w3.org/1999/xlink" version="1.1"><g stroke-width="1" stroke-linejoin="bevel"><path d="M887.2 540L755.5 536L748.5 671Z" fill="#2a4357" stroke="#2a4357"/><path d="M748.5 671L910.2 681L887.2 540Z" fill="#235166" stroke="#235166"/><path d="M745.5 393L617.8 528L755.5 536Z" fill="#007e7e" stroke="#007e7e"/><path d="M755.5 536L617.8 528L748.5 671Z" fill="#2a4357" stroke="#2a4357"/><path d="M718.5 803L880.2 817L748.5 671Z" fill="#006f7b" stroke="#006f7b"/><path d="M748.5 671L880.2 817L910.2 681Z" fill="#282a36" stroke="#282a36"/><path d="M585.8 659L718.5 803L748.5 671Z" fill="#156072" stroke="#156072"/><path d="M896.2 390L745.5 393L755.5 536Z" fill="#2b3647" stroke="#2b3647"/><path d="M1009.8 419L896.2 390L887.2 540Z" fill="#40a455" stroke="#40a455"/><path d="M887.2 540L896.2 390L755.5 536Z" fill="#2b3647" stroke="#2b3647"/><path d="M1049.8 681L1032.8 511L910.2 681Z" fill="#156072" stroke="#156072"/><path d="M910.2 681L1032.8 511L887.2 540Z" fill="#282a36" stroke="#282a36"/><path d="M617.8 528L585.8 659L748.5 671Z" fill="#6ead3a" stroke="#6ead3a"/><path d="M1027.8 830L1049.8 681L910.2 681Z" fill="#282a36" stroke="#282a36"/><path d="M1032.8 511L1009.8 419L887.2 540Z" fill="#007e7e" stroke="#007e7e"/><path d="M899.2 960L1027.8 830L880.2 817Z" fill="#00996a" stroke="#00996a"/><path d="M880.2 817L1027.8 830L910.2 681Z" fill="#282a36" stroke="#282a36"/><path d="M585.8 659L566.8 782L718.5 803Z" fill="#006f7b" stroke="#006f7b"/><path d="M745.5 393L564.8 404L617.8 528Z" fill="#006f7b" stroke="#006f7b"/><path d="M617.8 528L472.1 518L585.8 659Z" fill="#008c78" stroke="#008c78"/><path d="M585.8 659L448.1 646L566.8 782Z" fill="#006f7b" stroke="#006f7b"/><path d="M1032.8 281L900.2 277L896.2 390Z" fill="#282a36" stroke="#282a36"/><path d="M896.2 390L900.2 277L745.5 393Z" fill="#00996a" stroke="#00996a"/><path d="M745.5 393L716.5 279L564.8 404Z" fill="#40a455" stroke="#40a455"/><path d="M900.2 277L716.5 279L745.5 393Z" fill="#2b3647" stroke="#2b3647"/><path d="M564.8 404L472.1 518L617.8 528Z" fill="#156072" stroke="#156072"/><path d="M618.8 960L716.5 953L718.5 803Z" fill="#00996a" stroke="#00996a"/><path d="M718.5 803L716.5 953L880.2 817Z" fill="#156072" stroke="#156072"/><path d="M716.5 953L899.2 960L880.2 817Z" fill="#00996a" stroke="#00996a"/><path d="M1027.8 830L1174.5 689L1049.8 681Z" fill="#007e7e" stroke="#007e7e"/><path d="M1049.8 681L1199.5 564L1032.8 511Z" fill="#235166" stroke="#235166"/><path d="M1032.8 511L1161.5 382L1009.8 419Z" fill="#235166" stroke="#235166"/><path d="M1208.5 813L1174.5 689L1027.8 830Z" fill="#235166" stroke="#235166"/><path d="M472.1 518L448.1 646L585.8 659Z" fill="#006f7b" stroke="#006f7b"/><path d="M1174.5 689L1199.5 564L1049.8 681Z" fill="#2a4357" stroke="#2a4357"/><path d="M1009.8 419L1032.8 281L896.2 390Z" fill="#006f7b" stroke="#006f7b"/><path d="M1161.5 382L1032.8 281L1009.8 419Z" fill="#008c78" stroke="#008c78"/><path d="M899.2 960L1009.8 958L1027.8 830Z" fill="#40a455" stroke="#40a455"/><path d="M465.1 916L618.8 960L566.8 782Z" fill="#40a455" stroke="#40a455"/><path d="M566.8 782L618.8 960L718.5 803Z" fill="#2b3647" stroke="#2b3647"/><path d="M716.5 953L760.5 1080L899.2 960Z" fill="#2b3647" stroke="#2b3647"/><path d="M1199.5 564L1161.5 382L1032.8 511Z" fill="#40a455" stroke="#40a455"/><path d="M716.5 279L603.8 256L564.8 404Z" fill="#2a4357" stroke="#2a4357"/><path d="M564.8 404L412.1 390L472.1 518Z" fill="#2b3647" stroke="#2b3647"/><path d="M763.5 140L603.8 256L716.5 279Z" fill="#2a4357" stroke="#2a4357"/><path d="M763.5 140L716.5 279L900.2 277Z" fill="#282a36" stroke="#282a36"/><path d="M1158.5 923L1208.5 813L1027.8 830Z" fill="#007e7e" stroke="#007e7e"/><path d="M1322.2 703L1326.2 536L1199.5 564Z" fill="#006f7b" stroke="#006f7b"/><path d="M448.1 646L428.1 810L566.8 782Z" fill="#2b3647" stroke="#2b3647"/><path d="M463.1 253L412.1 390L564.8 404Z" fill="#2b3647" stroke="#2b3647"/><path d="M472.1 518L314.4 540L448.1 646Z" fill="#008c78" stroke="#008c78"/><path d="M267.4 690L313.4 815L428.1 810Z" fill="#40a455" stroke="#40a455"/><path d="M1009.8 958L1158.5 923L1027.8 830Z" fill="#282a36" stroke="#282a36"/><path d="M428.1 810L465.1 916L566.8 782Z" fill="#6ead3a" stroke="#6ead3a"/><path d="M861.2 134L763.5 140L900.2 277Z" fill="#6ead3a" stroke="#6ead3a"/><path d="M603.8 256L463.1 253L564.8 404Z" fill="#156072" stroke="#156072"/><path d="M1060.8 148L900.2 277L1032.8 281Z" fill="#2a4357" stroke="#2a4357"/><path d="M1060.8 148L861.2 134L900.2 277Z" fill="#007e7e" stroke="#007e7e"/><path d="M585.8 1080L760.5 1080L618.8 960Z" fill="#008c78" stroke="#008c78"/><path d="M618.8 960L760.5 1080L716.5 953Z" fill="#40a455" stroke="#40a455"/><path d="M899.2 960L906.2 1080L1009.8 958Z" fill="#235166" stroke="#235166"/><path d="M1009.8 958L1051.8 1080L1158.5 923Z" fill="#00996a" stroke="#00996a"/><path d="M760.5 1080L906.2 1080L899.2 960Z" fill="#40a455" stroke="#40a455"/><path d="M585.8 119L463.1 253L603.8 256Z" fill="#235166" stroke="#235166"/><path d="M287.4 394L314.4 540L412.1 390Z" fill="#6ead3a" stroke="#6ead3a"/><path d="M412.1 390L314.4 540L472.1 518Z" fill="#40a455" stroke="#40a455"/><path d="M428.1 810L319.4 918L465.1 916Z" fill="#6ead3a" stroke="#6ead3a"/><path d="M1322.2 703L1199.5 564L1174.5 689Z" fill="#006f7b" stroke="#006f7b"/><path d="M1199.5 564L1326.2 536L1161.5 382Z" fill="#235166" stroke="#235166"/><path d="M1314.2 822L1322.2 703L1208.5 813Z" fill="#282a36" stroke="#282a36"/><path d="M1208.5 813L1322.2 703L1174.5 689Z" fill="#00996a" stroke="#00996a"/><path d="M1204.5 247L1032.8 281L1161.5 382Z" fill="#2b3647" stroke="#2b3647"/><path d="M1204.5 247L1060.8 148L1032.8 281Z" fill="#40a455" stroke="#40a455"/><path d="M906.2 1080L1051.8 1080L1009.8 958Z" fill="#6ead3a" stroke="#6ead3a"/><path d="M1316.2 958L1314.2 822L1208.5 813Z" fill="#008c78" stroke="#008c78"/><path d="M1352.2 387L1204.5 247L1161.5 382Z" fill="#156072" stroke="#156072"/><path d="M465.1 916L585.8 1080L618.8 960Z" fill="#2a4357" stroke="#2a4357"/><path d="M1316.2 958L1208.5 813L1158.5 923Z" fill="#40a455" stroke="#40a455"/><path d="M722.5 0L585.8 119L763.5 140Z" fill="#006f7b" stroke="#006f7b"/><path d="M763.5 140L585.8 119L603.8 256Z" fill="#2a4357" stroke="#2a4357"/><path d="M267.4 690L428.1 810L448.1 646Z" fill="#2a4357" stroke="#2a4357"/><path d="M465.1 916L419.1 1080L585.8 1080Z" fill="#6ead3a" stroke="#6ead3a"/><path d="M314.4 540L267.4 690L448.1 646Z" fill="#156072" stroke="#156072"/><path d="M294.4 272L287.4 394L412.1 390Z" fill="#007e7e" stroke="#007e7e"/><path d="M124.7 534L136.7 697L267.4 690Z" fill="#008c78" stroke="#008c78"/><path d="M294.4 272L412.1 390L463.1 253Z" fill="#007e7e" stroke="#007e7e"/><path d="M1480.9 432L1352.2 387L1326.2 536Z" fill="#235166" stroke="#235166"/><path d="M1326.2 536L1352.2 387L1161.5 382Z" fill="#008c78" stroke="#008c78"/><path d="M1482.9 656L1326.2 536L1322.2 703Z" fill="#40a455" stroke="#40a455"/><path d="M170.7 793L319.4 918L313.4 815Z" fill="#40a455" stroke="#40a455"/><path d="M313.4 815L319.4 918L428.1 810Z" fill="#156072" stroke="#156072"/><path d="M1051.8 1080L1171.5 1080L1158.5 923Z" fill="#282a36" stroke="#282a36"/><path d="M1171.5 1080L1316.2 958L1158.5 923Z" fill="#282a36" stroke="#282a36"/><path d="M1471.9 783L1482.9 656L1322.2 703Z" fill="#156072" stroke="#156072"/><path d="M585.8 119L434.1 133L463.1 253Z" fill="#282a36" stroke="#282a36"/><path d="M1060.8 148L893.2 0L861.2 134Z" fill="#2a4357" stroke="#2a4357"/><path d="M861.2 134L722.5 0L763.5 140Z" fill="#156072" stroke="#156072"/><path d="M585.8 119L470.1 0L434.1 133Z" fill="#2a4357" stroke="#2a4357"/><path d="M1039.8 0L893.2 0L1060.8 148Z" fill="#156072" stroke="#156072"/><path d="M893.2 0L722.5 0L861.2 134Z" fill="#40a455" stroke="#40a455"/><path d="M319.4 918L419.1 1080L465.1 916Z" fill="#006f7b" stroke="#006f7b"/><path d="M434.1 133L294.4 272L463.1 253Z" fill="#007e7e" stroke="#007e7e"/><path d="M136.7 697L170.7 793L267.4 690Z" fill="#006f7b" stroke="#006f7b"/><path d="M1352.2 387L1350.2 278L1204.5 247Z" fill="#008c78" stroke="#008c78"/><path d="M1204.5 247L1205.5 115L1060.8 148Z" fill="#007e7e" stroke="#007e7e"/><path d="M1314.2 144L1205.5 115L1204.5 247Z" fill="#6ead3a" stroke="#6ead3a"/><path d="M1205.5 115L1039.8 0L1060.8 148Z" fill="#007e7e" stroke="#007e7e"/><path d="M722.5 0L590.8 0L585.8 119Z" fill="#008c78" stroke="#008c78"/><path d="M1471.9 783L1322.2 703L1314.2 822Z" fill="#006f7b" stroke="#006f7b"/><path d="M1352.2 387L1495.9 295L1350.2 278Z" fill="#156072" stroke="#156072"/><path d="M1482.9 656L1481.9 519L1326.2 536Z" fill="#282a36" stroke="#282a36"/><path d="M267.4 690L314.4 540L124.7 534Z" fill="#40a455" stroke="#40a455"/><path d="M267.4 690L170.7 793L313.4 815Z" fill="#00996a" stroke="#00996a"/><path d="M319.4 918L318.4 1080L419.1 1080Z" fill="#40a455" stroke="#40a455"/><path d="M1448.9 945L1471.9 783L1314.2 822Z" fill="#156072" stroke="#156072"/><path d="M1350.2 278L1314.2 144L1204.5 247Z" fill="#156072" stroke="#156072"/><path d="M1205.5 115L1197.5 0L1039.8 0Z" fill="#282a36" stroke="#282a36"/><path d="M1492.9 106L1314.2 144L1350.2 278Z" fill="#2a4357" stroke="#2a4357"/><path d="M1481.9 519L1480.9 432L1326.2 536Z" fill="#006f7b" stroke="#006f7b"/><path d="M124.7 534L314.4 540L287.4 394Z" fill="#007e7e" stroke="#007e7e"/><path d="M154.7 1080L318.4 1080L319.4 918Z" fill="#00996a" stroke="#00996a"/><path d="M140.7 396L124.7 534L287.4 394Z" fill="#282a36" stroke="#282a36"/><path d="M268.4 117L171.7 263L294.4 272Z" fill="#00996a" stroke="#00996a"/><path d="M171.7 263L140.7 396L287.4 394Z" fill="#006f7b" stroke="#006f7b"/><path d="M590.8 0L470.1 0L585.8 119Z" fill="#156072" stroke="#156072"/><path d="M1171.5 1080L1343.2 1080L1316.2 958Z" fill="#235166" stroke="#235166"/><path d="M1316.2 958L1448.9 945L1314.2 822Z" fill="#235166" stroke="#235166"/><path d="M171.7 263L287.4 394L294.4 272Z" fill="#00996a" stroke="#00996a"/><path d="M1343.2 1080L1448.9 945L1316.2 958Z" fill="#2a4357" stroke="#2a4357"/><path d="M1301.2 0L1197.5 0L1205.5 115Z" fill="#282a36" stroke="#282a36"/><path d="M268.4 117L294.4 272L434.1 133Z" fill="#235166" stroke="#235166"/><path d="M267.4 0L268.4 117L434.1 133Z" fill="#156072" stroke="#156072"/><path d="M1599.6 551L1480.9 432L1481.9 519Z" fill="#007e7e" stroke="#007e7e"/><path d="M1625.6 405L1495.9 295L1480.9 432Z" fill="#40a455" stroke="#40a455"/><path d="M1480.9 432L1495.9 295L1352.2 387Z" fill="#006f7b" stroke="#006f7b"/><path d="M1314.2 144L1301.2 0L1205.5 115Z" fill="#006f7b" stroke="#006f7b"/><path d="M0 840L125.7 921L170.7 793Z" fill="#40a455" stroke="#40a455"/><path d="M170.7 793L125.7 921L319.4 918Z" fill="#008c78" stroke="#008c78"/><path d="M0 840L170.7 793L136.7 697Z" fill="#6ead3a" stroke="#6ead3a"/><path d="M1492.9 106L1301.2 0L1314.2 144Z" fill="#2b3647" stroke="#2b3647"/><path d="M1471.9 783L1596.6 660L1482.9 656Z" fill="#007e7e" stroke="#007e7e"/><path d="M1482.9 656L1599.6 551L1481.9 519Z" fill="#2a4357" stroke="#2a4357"/><path d="M1620.6 789L1596.6 660L1471.9 783Z" fill="#6ead3a" stroke="#6ead3a"/><path d="M1596.6 660L1599.6 551L1482.9 656Z" fill="#00996a" stroke="#00996a"/><path d="M1343.2 1080L1450.9 1080L1448.9 945Z" fill="#235166" stroke="#235166"/><path d="M1448.9 945L1620.6 789L1471.9 783Z" fill="#282a36" stroke="#282a36"/><path d="M163.7 0L157.7 145L268.4 117Z" fill="#156072" stroke="#156072"/><path d="M268.4 117L157.7 145L171.7 263Z" fill="#156072" stroke="#156072"/><path d="M0 296L0 425L140.7 396Z" fill="#156072" stroke="#156072"/><path d="M0 425L0 562L124.7 534Z" fill="#282a36" stroke="#282a36"/><path d="M125.7 921L154.7 1080L319.4 918Z" fill="#2b3647" stroke="#2b3647"/><path d="M470.1 0L267.4 0L434.1 133Z" fill="#2a4357" stroke="#2a4357"/><path d="M0 425L124.7 534L140.7 396Z" fill="#235166" stroke="#235166"/><path d="M124.7 534L0 664L136.7 697Z" fill="#282a36" stroke="#282a36"/><path d="M125.7 921L0 966L154.7 1080Z" fill="#156072" stroke="#156072"/><path d="M0 562L0 664L124.7 534Z" fill="#2a4357" stroke="#2a4357"/><path d="M1617.6 966L1620.6 789L1448.9 945Z" fill="#6ead3a" stroke="#6ead3a"/><path d="M1596.6 660L1769.3 563L1599.6 551Z" fill="#235166" stroke="#235166"/><path d="M1769.3 563L1625.6 405L1599.6 551Z" fill="#2a4357" stroke="#2a4357"/><path d="M1599.6 551L1625.6 405L1480.9 432Z" fill="#40a455" stroke="#40a455"/><path d="M1495.9 295L1492.9 106L1350.2 278Z" fill="#2b3647" stroke="#2b3647"/><path d="M0 296L140.7 396L171.7 263Z" fill="#235166" stroke="#235166"/><path d="M1597.6 146L1492.9 106L1495.9 295Z" fill="#007e7e" stroke="#007e7e"/><path d="M0 664L0 840L136.7 697Z" fill="#008c78" stroke="#008c78"/><path d="M1450.9 1080L1617.6 966L1448.9 945Z" fill="#2b3647" stroke="#2b3647"/><path d="M0 140L0 296L171.7 263Z" fill="#282a36" stroke="#282a36"/><path d="M0 140L171.7 263L157.7 145Z" fill="#235166" stroke="#235166"/><path d="M267.4 0L163.7 0L268.4 117Z" fill="#2b3647" stroke="#2b3647"/><path d="M0 840L0 966L125.7 921Z" fill="#006f7b" stroke="#006f7b"/><path d="M1791.3 422L1644.6 256L1625.6 405Z" fill="#282a36" stroke="#282a36"/><path d="M1625.6 405L1644.6 256L1495.9 295Z" fill="#235166" stroke="#235166"/><path d="M1769.3 563L1596.6 660L1794.3 691Z" fill="#282a36" stroke="#282a36"/><path d="M1644.6 256L1597.6 146L1495.9 295Z" fill="#156072" stroke="#156072"/><path d="M1492.9 106L1502.9 0L1301.2 0Z" fill="#235166" stroke="#235166"/><path d="M1629.6 0L1502.9 0L1492.9 106Z" fill="#235166" stroke="#235166"/><path d="M1450.9 1080L1621.6 1080L1617.6 966Z" fill="#007e7e" stroke="#007e7e"/><path d="M1794.3 691L1596.6 660L1620.6 789Z" fill="#2a4357" stroke="#2a4357"/><path d="M0 0L0 140L157.7 145Z" fill="#2a4357" stroke="#2a4357"/><path d="M0 966L0 1080L154.7 1080Z" fill="#156072" stroke="#156072"/><path d="M1766.3 819L1620.6 789L1617.6 966Z" fill="#156072" stroke="#156072"/><path d="M1772.3 929L1766.3 819L1617.6 966Z" fill="#007e7e" stroke="#007e7e"/><path d="M1766.3 819L1794.3 691L1620.6 789Z" fill="#007e7e" stroke="#007e7e"/><path d="M1920 564L1791.3 422L1769.3 563Z" fill="#00996a" stroke="#00996a"/><path d="M1769.3 563L1791.3 422L1625.6 405Z" fill="#156072" stroke="#156072"/><path d="M1765.3 129L1629.6 0L1597.6 146Z" fill="#00996a" stroke="#00996a"/><path d="M1597.6 146L1629.6 0L1492.9 106Z" fill="#2a4357" stroke="#2a4357"/><path d="M1920 656L1769.3 563L1794.3 691Z" fill="#008c78" stroke="#008c78"/><path d="M1789.3 1080L1772.3 929L1617.6 966Z" fill="#235166" stroke="#235166"/><path d="M1765.3 129L1597.6 146L1644.6 256Z" fill="#40a455" stroke="#40a455"/><path d="M163.7 0L0 0L157.7 145Z" fill="#40a455" stroke="#40a455"/><path d="M1791.3 422L1781.3 240L1644.6 256Z" fill="#6ead3a" stroke="#6ead3a"/><path d="M1781.3 240L1765.3 129L1644.6 256Z" fill="#40a455" stroke="#40a455"/><path d="M1621.6 1080L1789.3 1080L1617.6 966Z" fill="#2a4357" stroke="#2a4357"/><path d="M1920 656L1794.3 691L1920 805Z" fill="#007e7e" stroke="#007e7e"/><path d="M1791.3 422L1920 288L1781.3 240Z" fill="#2a4357" stroke="#2a4357"/><path d="M1781.3 240L1920 150L1765.3 129Z" fill="#2a4357" stroke="#2a4357"/><path d="M1920 656L1920 564L1769.3 563Z" fill="#00996a" stroke="#00996a"/><path d="M1794.3 691L1766.3 819L1920 805Z" fill="#006f7b" stroke="#006f7b"/><path d="M1920 805L1766.3 819L1772.3 929Z" fill="#006f7b" stroke="#006f7b"/><path d="M1920 954L1920 805L1772.3 929Z" fill="#007e7e" stroke="#007e7e"/><path d="M1920 564L1920 389L1791.3 422Z" fill="#2a4357" stroke="#2a4357"/><path d="M1920 150L1784.3 0L1765.3 129Z" fill="#156072" stroke="#156072"/><path d="M1765.3 129L1784.3 0L1629.6 0Z" fill="#282a36" stroke="#282a36"/><path d="M1920 389L1920 288L1791.3 422Z" fill="#156072" stroke="#156072"/><path d="M1789.3 1080L1920 954L1772.3 929Z" fill="#235166" stroke="#235166"/><path d="M1920 288L1920 150L1781.3 240Z" fill="#282a36" stroke="#282a36"/><path d="M1789.3 1080L1920 1080L1920 954Z" fill="#235166" stroke="#235166"/><path d="M1920 150L1920 0L1784.3 0Z" fill="#00996a" stroke="#00996a"/></g></svg>